<svg viewBox="0 0 100 100" fill="none" xmlns="http://www.w3.org/2000/svg"><path d="M87.222 0H12.778C5.732 0 0 5.732 0 12.778v74.444C0 94.268 5.732 100 12.778 100h74.444C94.268 100 100 94.268 100 87.222V12.778C100 5.732 94.268 0 87.222 0Zm6.888 87.222a6.896 6.896 0 0 1-6.888 6.888H12.778a6.896 6.896 0 0 1-6.888-6.888V76.478l19.386-16.494a1.903 1.903 0 0 1 2.453-.015l12.144 10.084c1.17.972 2.89.892 3.965-.185l28.854-28.897a1.888 1.888 0 0 1 1.447-.557c.316.016.916.129 1.382.702L94.11 64.005v23.217Zm0-32.56-14.017-17.26a7.808 7.808 0 0 0-5.653-2.871 7.816 7.816 0 0 0-5.917 2.278L41.57 63.805l-10.076-8.367a7.783 7.783 0 0 0-10.034.06L5.89 68.745V12.778a6.896 6.896 0 0 1 6.888-6.888h74.444a6.896 6.896 0 0 1 6.888 6.888v41.883Z" fill="currentColor"/><path d="M31.202 12C23.37 12 17 18.371 17 26.202c0 7.83 6.37 14.201 14.202 14.201 7.83 0 14.201-6.37 14.201-14.201S39.034 12 31.203 12Zm0 22.514c-4.583 0-8.312-3.73-8.312-8.312 0-4.583 3.729-8.312 8.312-8.312 4.583 0 8.311 3.729 8.311 8.312 0 4.583-3.728 8.311-8.311 8.311Z" fill="currentColor"/></svg>