<svg viewBox="0 0 75 75" fill="none" xmlns="http://www.w3.org/2000/svg"><g clip-path="url(#a)"><path d="M61.182 29.976h-27.94a8.416 8.416 0 0 0 2.078-5.54c0-4.662-3.793-8.454-8.454-8.454-4.662 0-8.454 3.792-8.454 8.454 0 2.118.785 4.055 2.076 5.54H13.82c-4.03 0-7.309 3.28-7.309 7.31v8.624a1.462 1.462 0 0 0 2.924 0v-8.625a4.39 4.39 0 0 1 4.385-4.385h40.93a4.39 4.39 0 0 1 4.386 4.385v7.894H43.932c-4.03 0-7.309 3.279-7.309 7.31 0 4.03 3.28 7.308 7.31 7.308h15.202v7.894a4.39 4.39 0 0 1-4.385 4.385H13.82a4.39 4.39 0 0 1-4.386-4.385v-8.636a1.462 1.462 0 1 0-2.924 0v8.636c0 4.03 3.279 7.309 7.31 7.309h47.362c4.03 0 7.309-3.279 7.309-7.309V37.285c0-4.03-3.28-7.309-7.31-7.309Zm-34.316-11.07c3.049 0 5.53 2.48 5.53 5.53 0 3.05-2.481 5.53-5.53 5.53-3.05 0-5.53-2.48-5.53-5.53 0-3.05 2.48-5.53 5.53-5.53ZM60.593 32.9h.589a4.39 4.39 0 0 1 4.385 4.385v7.894H62.06v-7.894a7.27 7.27 0 0 0-1.466-4.385ZM39.547 52.488a4.39 4.39 0 0 1 4.385-4.385h21.635v8.77H43.932a4.39 4.39 0 0 1-4.385-4.385Zm21.635 19.588h-.589a7.27 7.27 0 0 0 1.466-4.385v-7.894h3.508v7.894a4.39 4.39 0 0 1-4.385 4.385Z" fill="url(#b)"/><path d="M43.558 51.026c-.386 0-.763.156-1.035.428-.272.272-.427.65-.427 1.034s.155.761.427 1.033c.273.272.65.429 1.035.429.385 0 .76-.157 1.034-.429.271-.272.428-.649.428-1.033 0-.385-.157-.762-.428-1.034a1.472 1.472 0 0 0-1.034-.428Z" fill="url(#c)"/><path d="M48.135 20.123c4.661 0 8.454-3.792 8.454-8.454 0-4.66-3.793-8.453-8.454-8.453-4.662 0-8.454 3.792-8.454 8.453 0 4.662 3.792 8.454 8.454 8.454Zm0-13.984c3.05 0 5.53 2.481 5.53 5.53 0 3.05-2.48 5.531-5.53 5.531-3.05 0-5.53-2.48-5.53-5.53 0-3.05 2.48-5.53 5.53-5.53Z" fill="url(#d)"/><path d="M33.857 14.41c.807 0 1.462-.654 1.462-1.461V1.462a1.462 1.462 0 1 0-2.924 0v11.487c0 .807.655 1.462 1.462 1.462Z" fill="url(#e)"/><path d="M26.84 9.356c.808 0 1.462-.655 1.462-1.462V1.462a1.462 1.462 0 1 0-2.924 0v6.432c0 .807.655 1.462 1.462 1.462Z" fill="url(#f)"/><path d="M7.972 53.95c.384 0 .761-.157 1.033-.429.272-.272.429-.649.429-1.033 0-.385-.157-.762-.429-1.034a1.47 1.47 0 0 0-1.033-.428c-.385 0-.762.156-1.034.428s-.428.65-.428 1.034.156.761.428 1.033c.272.272.65.429 1.034.429Z" fill="url(#g)"/></g><defs><linearGradient id="b" x1="37.5" y1="15.982" x2="37.5" y2="75" gradientUnits="userSpaceOnUse"><stop stop-color="#03BAFE"/><stop offset="1" stop-color="#0068FF"/></linearGradient><linearGradient id="c" x1="43.558" y1="51.026" x2="43.558" y2="53.95" gradientUnits="userSpaceOnUse"><stop stop-color="#03BAFE"/><stop offset="1" stop-color="#0068FF"/></linearGradient><linearGradient id="d" x1="48.135" y1="3.216" x2="48.135" y2="20.123" gradientUnits="userSpaceOnUse"><stop stop-color="#03BAFE"/><stop offset="1" stop-color="#0068FF"/></linearGradient><linearGradient id="e" x1="33.857" y1="0" x2="33.857" y2="14.411" gradientUnits="userSpaceOnUse"><stop stop-color="#03BAFE"/><stop offset="1" stop-color="#0068FF"/></linearGradient><linearGradient id="f" x1="26.84" y1="0" x2="26.84" y2="9.356" gradientUnits="userSpaceOnUse"><stop stop-color="#03BAFE"/><stop offset="1" stop-color="#0068FF"/></linearGradient><linearGradient id="g" x1="7.972" y1="51.026" x2="7.972" y2="53.95" gradientUnits="userSpaceOnUse"><stop stop-color="#03BAFE"/><stop offset="1" stop-color="#0068FF"/></linearGradient><clipPath id="a"><path fill="#fff" d="M0 0h75v75H0z"/></clipPath></defs></svg>