<svg viewBox="0 0 75 75" fill="none" xmlns="http://www.w3.org/2000/svg"><g clip-path="url(#a)"><path d="M45.754 53.324a4.372 4.372 0 0 0-1.294-2.82l-5.564-5.566a5.834 5.834 0 0 0 2.37-1.434l.142-.142c2.452-2.452 2.255-6.638-.438-9.332-1.282-1.281-2.94-2.045-4.669-2.149-1.796-.108-3.451.5-4.663 1.711l-.142.142a5.83 5.83 0 0 0-1.434 2.37l-5.565-5.564c-1.64-1.64-4.209-1.739-5.727-.22l-5.043 5.043c-.618.617-.874 1.514-.687 2.4.204.962.875 1.749 1.796 2.105.581.224 1.108.57 1.566 1.028l.16.16c.775.775 1.236 1.76 1.297 2.774.057.947-.248 1.805-.858 2.415-.61.61-1.469.916-2.416.858-1.013-.061-1.998-.522-2.773-1.297l-.16-.16a4.506 4.506 0 0 1-1.029-1.566 2.893 2.893 0 0 0-2.105-1.796c-.886-.187-1.783.07-2.4.687l-5.037 5.038c-1.518 1.518-1.42 4.087.22 5.727L6.866 59.3c-.9.285-1.71.774-2.371 1.435l-.142.142c-2.452 2.452-2.255 6.638.439 9.332 1.43 1.43 3.28 2.156 5.068 2.156 1.58 0 3.113-.568 4.263-1.718l.142-.142a5.83 5.83 0 0 0 1.435-2.371l5.564 5.565A4.374 4.374 0 0 0 24.326 75a3.761 3.761 0 0 0 2.666-1.08l4.797-4.797a7.428 7.428 0 0 0 1.631 2.435l.16.16c2.694 2.693 6.88 2.89 9.332.438 2.452-2.452 2.255-6.638-.439-9.332l-.16-.16a7.425 7.425 0 0 0-2.435-1.631l4.803-4.803c.748-.748 1.14-1.807 1.073-2.906Zm-3.145.835-5.043 5.043c-.617.617-.874 1.514-.687 2.4.204.962.875 1.75 1.796 2.105.582.225 1.109.57 1.567 1.03l.16.159c1.551 1.551 1.748 3.879.438 5.189s-3.637 1.113-5.188-.439l-.16-.16a4.506 4.506 0 0 1-1.03-1.566 2.893 2.893 0 0 0-2.105-1.796c-.885-.187-1.782.07-2.4.687l-5.037 5.037c-.203.203-.47.233-.658.22a1.468 1.468 0 0 1-.926-.44l-2.232-2.233 4.861-4.861a1.465 1.465 0 0 0-2.072-2.072l-4.86 4.861-1.518-1.516a2.87 2.87 0 0 0-2.022-.855c-.254 0-.51.036-.758.11a2.49 2.49 0 0 0-1.752 1.896 2.903 2.903 0 0 1-.79 1.476l-.141.141c-1.31 1.31-3.638 1.113-5.19-.438-1.55-1.552-1.747-3.879-.438-5.189l.142-.141a2.903 2.903 0 0 1 1.476-.79 2.49 2.49 0 0 0 1.896-1.752c.287-.969.002-2.034-.745-2.78l-5.82-5.821a1.469 1.469 0 0 1-.441-.926c-.012-.189.017-.456.22-.658l4.797-4.797a7.427 7.427 0 0 0 1.631 2.435l.16.16c2.694 2.694 6.88 2.89 9.332.438 2.452-2.452 2.255-6.638-.438-9.332l-.16-.16a7.422 7.422 0 0 0-2.436-1.63l4.803-4.803c.37-.37 1.095-.269 1.584.22l5.82 5.82c.747.747 1.813 1.033 2.781.746a2.49 2.49 0 0 0 1.752-1.896 2.902 2.902 0 0 1 .79-1.476l.142-.142c.61-.61 1.468-.915 2.415-.858 1.014.061 1.999.522 2.773 1.297 1.552 1.551 1.748 3.879.439 5.188l-.142.142a2.903 2.903 0 0 1-1.476.79 2.49 2.49 0 0 0-1.896 1.751c-.287.969-.002 2.035.745 2.781l5.82 5.82c.261.261.422.599.442.927.011.188-.018.455-.22.658Z" fill="url(#b)"/><path d="M29.722 58.705a1.476 1.476 0 0 0-1.036-.43c-.385 0-.763.157-1.035.43-.273.272-.43.65-.43 1.035 0 .386.157.764.43 1.036.272.273.649.43 1.035.43.386 0 .764-.157 1.036-.43.272-.272.43-.65.43-1.036 0-.385-.158-.763-.43-1.035Z" fill="url(#c)"/><path d="M60.83 18.603a1.476 1.476 0 0 0-1.036-.43c-.386 0-.764.157-1.036.43-.273.272-.43.65-.43 1.035 0 .386.157.764.43 1.036.272.273.65.43 1.035.43.386 0 .764-.157 1.036-.43.273-.272.43-.65.43-1.036 0-.385-.157-.763-.43-1.035Z" fill="url(#d)"/><path d="M71.8 33.667a7.475 7.475 0 0 0-2.795-1.768l4.911-4.911c.749-.748 1.14-1.808 1.073-2.906a4.373 4.373 0 0 0-1.294-2.821l-5.454-5.456a5.837 5.837 0 0 0 2.045-1.321l.141-.142c2.452-2.452 2.256-6.638-.438-9.332-2.694-2.693-6.88-2.89-9.332-.438l-.142.141a5.842 5.842 0 0 0-1.321 2.046l-5.462-5.461c-1.64-1.64-4.209-1.74-5.727-.22l-4.91 4.91a7.477 7.477 0 0 0-1.769-2.794l-.16-.16c-2.693-2.693-6.88-2.89-9.331-.438-2.452 2.452-2.256 6.638.438 9.331l.16.16a7.477 7.477 0 0 0 2.794 1.768l-4.911 4.911c-1.518 1.518-1.42 4.087.221 5.728l5.826 5.821c.746.747 1.812 1.032 2.78.745a2.49 2.49 0 0 0 1.752-1.896 2.902 2.902 0 0 1 .79-1.476l.142-.142c.61-.61 1.47-.915 2.415-.858 1.014.061 1.999.522 2.774 1.297.774.775 1.235 1.76 1.296 2.773.057.947-.247 1.805-.858 2.416l-.142.141a2.903 2.903 0 0 1-1.475.79 2.49 2.49 0 0 0-1.897 1.752c-.287.968-.001 2.033.745 2.78l5.815 5.82a4.355 4.355 0 0 0 3.067 1.297c.982 0 1.94-.356 2.66-1.076l4.911-4.911a7.477 7.477 0 0 0 1.768 2.793l.16.16c2.694 2.694 6.88 2.89 9.332.439 2.452-2.452 2.255-6.639-.439-9.332l-.16-.16Zm-1.474 7.42c-1.31 1.31-3.638 1.113-5.189-.439l-.16-.16a4.512 4.512 0 0 1-1.106-1.783 2.922 2.922 0 0 0-2.084-1.927c-.911-.218-1.836.032-2.474.67l-5.158 5.157c-.202.203-.47.233-.658.22a1.468 1.468 0 0 1-.925-.44l-5.56-5.564c.9-.284 1.71-.774 2.372-1.435l.141-.141c1.212-1.212 1.82-2.868 1.711-4.664-.104-1.729-.868-3.387-2.15-4.668-1.28-1.282-2.939-2.045-4.668-2.15-1.796-.107-3.451.5-4.663 1.711l-.142.142a5.832 5.832 0 0 0-1.434 2.372l-5.57-5.566a1.469 1.469 0 0 1-.442-.927c-.011-.188.018-.455.22-.658l5.158-5.157c.638-.638.889-1.563.67-2.474a2.923 2.923 0 0 0-1.927-2.084 4.517 4.517 0 0 1-1.783-1.106l-.16-.16c-1.551-1.552-1.748-3.88-.438-5.189 1.309-1.31 3.637-1.113 5.188.439l.16.16c.51.51.893 1.126 1.106 1.783a2.922 2.922 0 0 0 2.084 1.926c.911.219 1.836-.031 2.474-.67l5.158-5.157c.37-.37 1.095-.268 1.584.22l5.691 5.693c.722.721 1.757 1.015 2.703.767a2.498 2.498 0 0 0 1.79-1.76c.138-.497.388-.929.742-1.283l.142-.142c1.31-1.31 3.637-1.113 5.188.439 1.552 1.551 1.748 3.878.439 5.188l-.142.142a2.884 2.884 0 0 1-1.282.743 2.498 2.498 0 0 0-1.76 1.79c-.249.945.045 1.98.767 2.702l5.685 5.685c.26.26.421.598.44.926.012.188-.017.455-.22.658l-2.35 2.35-4.855-4.854a1.465 1.465 0 1 0-2.071 2.072l4.854 4.854-.735.736c-.638.638-.889 1.563-.67 2.474a2.923 2.923 0 0 0 1.926 2.084 4.517 4.517 0 0 1 1.784 1.106l.16.16c1.552 1.551 1.748 3.88.439 5.189Z" fill="url(#e)"/></g><defs><linearGradient id="b" x1="22.882" y1="29.242" x2="22.882" y2="75" gradientUnits="userSpaceOnUse"><stop stop-color="#03BAFE"/><stop offset="1" stop-color="#0068FF"/></linearGradient><linearGradient id="c" x1="28.686" y1="58.276" x2="28.686" y2="61.205" gradientUnits="userSpaceOnUse"><stop stop-color="#03BAFE"/><stop offset="1" stop-color="#0068FF"/></linearGradient><linearGradient id="d" x1="59.794" y1="18.174" x2="59.794" y2="21.103" gradientUnits="userSpaceOnUse"><stop stop-color="#03BAFE"/><stop offset="1" stop-color="#0068FF"/></linearGradient><linearGradient id="e" x1="52.118" y1="0" x2="52.118" y2="45.754" gradientUnits="userSpaceOnUse"><stop stop-color="#03BAFE"/><stop offset="1" stop-color="#0068FF"/></linearGradient><clipPath id="a"><path fill="#fff" d="M0 0h75v75H0z"/></clipPath></defs></svg>