<svg viewBox="0 0 75 75" fill="none" xmlns="http://www.w3.org/2000/svg"><g clip-path="url(#a)"><path d="M37.499 51.483c-7.71 0-13.983-6.272-13.983-13.983 0-7.71 6.273-13.984 13.983-13.984 7.71 0 13.983 6.273 13.983 13.984 0 7.71-6.273 13.983-13.983 13.983Zm0-25.037c-6.095 0-11.054 4.959-11.054 11.054 0 6.095 4.96 11.054 11.054 11.054 6.095 0 11.054-4.959 11.054-11.054 0-6.095-4.959-11.054-11.054-11.054Z" fill="url(#b)"/><path d="M36.502 42.046a1.46 1.46 0 0 1-1.03-.423l-3.114-3.082a1.465 1.465 0 0 1 2.06-2.082l2.079 2.056 5.132-5.132a1.465 1.465 0 0 1 2.072 2.072l-6.163 6.162a1.46 1.46 0 0 1-1.036.43Z" fill="url(#c)"/><path d="M37.498 75c-.217 0-.434-.048-.635-.145a61.333 61.333 0 0 1-15.958-11.088 61.611 61.611 0 0 1-6.87-7.834A24.361 24.361 0 0 1 9.258 41.38V12.487c0-.809.656-1.465 1.465-1.465 9.961 0 19.334-3.851 25.714-10.566a1.465 1.465 0 0 1 2.124 0c6.378 6.715 15.75 10.566 25.713 10.566.808 0 1.464.656 1.464 1.465v9.662a1.465 1.465 0 0 1-2.93 0v-8.223C53.13 13.584 44.053 9.858 37.5 3.543c-6.554 6.315-15.633 10.04-25.311 10.383V41.38c0 4.651 1.454 9.082 4.204 12.814a58.686 58.686 0 0 0 6.544 7.462 58.402 58.402 0 0 0 14.561 10.25 58.372 58.372 0 0 0 14.564-10.25 58.673 58.673 0 0 0 6.545-7.464 21.453 21.453 0 0 0 4.203-12.813v-6.046a1.465 1.465 0 1 1 2.93 0v6.046c0 5.28-1.651 10.311-4.775 14.55a61.611 61.611 0 0 1-6.872 7.838 61.289 61.289 0 0 1-15.96 11.088c-.2.097-.418.145-.635.145Z" fill="url(#d)"/><path d="M64.274 30.206a1.465 1.465 0 1 0 0-2.93 1.465 1.465 0 0 0 0 2.93Z" fill="url(#e)"/><path d="M37.498 68.415c-.242 0-.485-.06-.704-.18a55.552 55.552 0 0 1-18.043-15.779 18.541 18.541 0 0 1-3.633-11.076V17.97c0-.736.546-1.359 1.276-1.453 7.509-.974 14.494-3.85 20.203-8.314a1.465 1.465 0 0 1 1.805 0c5.707 4.465 12.692 7.34 20.2 8.314.73.095 1.277.717 1.277 1.453v23.41c0 4.02-1.256 7.85-3.632 11.075a55.73 55.73 0 0 1-6.217 7.09 55.523 55.523 0 0 1-11.829 8.69c-.219.12-.461.18-.703.18Zm-19.45-49.177V41.38c0 3.391 1.058 6.62 3.06 9.338a52.81 52.81 0 0 0 5.89 6.715 52.622 52.622 0 0 0 10.5 7.84 52.603 52.603 0 0 0 16.39-14.557 15.632 15.632 0 0 0 3.061-9.337V19.238c-7.157-1.13-13.835-3.891-19.45-8.042-5.616 4.15-12.295 6.912-19.452 8.042Z" fill="url(#f)"/></g><defs><linearGradient id="b" x1="37.499" y1="23.516" x2="37.499" y2="51.483" gradientUnits="userSpaceOnUse"><stop stop-color="#03BAFE"/><stop offset="1" stop-color="#0068FF"/></linearGradient><linearGradient id="c" x1="38.027" y1="32.954" x2="38.027" y2="42.046" gradientUnits="userSpaceOnUse"><stop stop-color="#03BAFE"/><stop offset="1" stop-color="#0068FF"/></linearGradient><linearGradient id="d" x1="37.499" y1="0" x2="37.499" y2="75" gradientUnits="userSpaceOnUse"><stop stop-color="#03BAFE"/><stop offset="1" stop-color="#0068FF"/></linearGradient><linearGradient id="e" x1="64.274" y1="27.276" x2="64.274" y2="30.206" gradientUnits="userSpaceOnUse"><stop stop-color="#03BAFE"/><stop offset="1" stop-color="#0068FF"/></linearGradient><linearGradient id="f" x1="37.498" y1="7.891" x2="37.498" y2="68.415" gradientUnits="userSpaceOnUse"><stop stop-color="#03BAFE"/><stop offset="1" stop-color="#0068FF"/></linearGradient><clipPath id="a"><path fill="#fff" d="M0 0h75v75H0z"/></clipPath></defs></svg>