<svg viewBox="0 0 14 16" fill="none" xmlns="http://www.w3.org/2000/svg"><path d="M3.718 14.113H1.103V5.3h2.615v8.813ZM2.41 4.098c-.836 0-1.514-.724-1.514-1.6 0-.42.16-.823.443-1.12.284-.297.67-.464 1.071-.464.402 0 .787.167 1.071.464.284.297.444.7.444 1.12 0 .876-.679 1.6-1.515 1.6Zm11.097 10.015h-2.61v-4.29c0-1.022-.02-2.333-1.36-2.333-1.359 0-1.567 1.11-1.567 2.26v4.363H5.356V5.3h2.509v1.203H7.9c.35-.693 1.202-1.424 2.475-1.424 2.646 0 3.133 1.824 3.133 4.193v4.841h-.003Z" fill="currentColor"/></svg>