<svg viewBox="0 0 14 12" fill="none" xmlns="http://www.w3.org/2000/svg"><path d="M12.486 2.829c.008.116.008.233.008.35 0 3.552-2.664 7.645-7.533 7.645-1.5 0-2.894-.441-4.066-1.207.213.025.418.034.64.034A5.253 5.253 0 0 0 4.82 8.503a2.658 2.658 0 0 1-2.475-1.864 2.762 2.762 0 0 0 1.197-.05 2.678 2.678 0 0 1-2.124-2.637v-.033c.353.2.763.324 1.197.34a2.696 2.696 0 0 1-1.18-2.237c0-.5.13-.957.36-1.356a7.49 7.49 0 0 0 5.46 2.812 3.077 3.077 0 0 1-.066-.616c0-1.48 1.18-2.687 2.648-2.687.762 0 1.45.324 1.934.849a5.168 5.168 0 0 0 1.68-.65 2.673 2.673 0 0 1-1.163 1.482 5.246 5.246 0 0 0 1.524-.416 5.737 5.737 0 0 1-1.328 1.389Z" fill="currentColor"/></svg>