<svg viewBox="0 0 13 15" fill="none" xmlns="http://www.w3.org/2000/svg"><path d="M6.357 4.405c-1.63 0-2.945 1.36-2.945 3.047S4.726 10.5 6.357 10.5c1.63 0 2.945-1.36 2.945-3.047 0-1.686-1.315-3.047-2.945-3.047Zm0 5.028c-1.054 0-1.915-.888-1.915-1.98 0-1.093.859-1.982 1.915-1.982S8.27 6.36 8.27 7.452c0 1.093-.86 1.981-1.914 1.981Zm3.752-5.152c0 .395-.307.71-.687.71a.698.698 0 0 1-.687-.71.7.7 0 0 1 .687-.711.7.7 0 0 1 .687.71Zm1.95.72c-.043-.951-.253-1.794-.927-2.489-.672-.695-1.487-.912-2.407-.96-.948-.056-3.79-.056-4.74 0-.917.045-1.732.263-2.406.957C.905 3.204.697 4.047.65 5c-.054.981-.054 3.922 0 4.903.044.952.254 1.796.928 2.49.674.695 1.487.913 2.407.96.948.056 3.79.056 4.74 0 .92-.045 1.734-.262 2.406-.96.672-.694.882-1.538.928-2.49.054-.98.054-3.919 0-4.9Zm-1.224 5.954c-.2.52-.587.92-1.092 1.13-.756.31-2.55.238-3.386.238-.836 0-2.633.07-3.386-.238a1.973 1.973 0 0 1-1.092-1.13c-.3-.782-.23-2.638-.23-3.503 0-.864-.068-2.723.23-3.503.2-.52.587-.92 1.092-1.13.756-.31 2.55-.238 3.386-.238.835 0 2.632-.069 3.386.239.502.206.89.607 1.092 1.13.3.781.23 2.638.23 3.502 0 .865.07 2.723-.23 3.503Z" fill="currentColor"/></svg>