<svg viewBox="0 0 15 16" fill="none" xmlns="http://www.w3.org/2000/svg"><path d="M12.392 2.864C11.082 1.484 9.339.726 7.485.726 3.66.726.548 3.997.548 8.017c0 1.284.319 2.539.925 3.646l-.984 3.776 3.678-1.014a6.653 6.653 0 0 0 3.315.886h.003c3.822 0 7.003-3.27 7.003-7.29 0-1.948-.787-3.777-2.096-5.157Zm-4.907 11.22a5.545 5.545 0 0 1-2.937-.845l-.21-.131-2.18.6.58-2.236-.137-.23a6.27 6.27 0 0 1-.881-3.225c0-3.34 2.587-6.06 5.769-6.06 1.54 0 2.987.631 4.074 1.777 1.088 1.147 1.757 2.667 1.754 4.286 0 3.344-2.653 6.063-5.832 6.063Zm3.163-4.54c-.172-.092-1.025-.532-1.184-.59-.16-.063-.275-.093-.391.091a10.39 10.39 0 0 1-.55.716c-.1.122-.203.138-.375.046-1.019-.535-1.688-.956-2.36-2.168-.178-.321.179-.298.51-.995.056-.121.028-.226-.016-.318-.043-.092-.39-.989-.534-1.353-.14-.355-.284-.306-.39-.312-.1-.007-.216-.007-.332-.007a.628.628 0 0 0-.462.227c-.16.184-.607.624-.607 1.52 0 .897.622 1.764.707 1.885.087.122 1.221 1.961 2.962 2.753 1.1.499 1.531.542 2.081.456.335-.052 1.025-.44 1.169-.867.144-.427.144-.791.1-.867-.04-.082-.156-.128-.328-.217Z" fill="currentColor"/></svg>