<svg width="32" height="32" fill="none" xmlns="http://www.w3.org/2000/svg"><g clip-path="url(#a)"><path d="M24.217 5.673a7.25 7.25 0 0 1-.22 1.8c-.069.265 0 .283.243.23 1.148-.259 2.296-.316 3.444.007 1.72.484 2.746 1.672 3.375 3.276.294.755.49 1.534.605 2.336.122.865-.455 1.672-1.309 1.8-.9.132-1.696-.45-1.829-1.345a7.718 7.718 0 0 0-.398-1.557c-.473-1.252-1.079-1.707-2.654-1.517-1.476.179-2.763.83-3.922 1.736-.3.237-.531.542-.86.756-.71.45-1.604.346-2.134-.289a1.578 1.578 0 0 1 .103-2.145c1.304-1.298 2.089-2.85 2.343-4.672.051-.37.028-.727-.047-1.09-.115-.543-.432-.929-.923-1.183a6.417 6.417 0 0 0-2.047-.64c-.895-.127-1.506-.848-1.437-1.713.07-.877.813-1.552 1.713-1.454 1.518.168 2.954.618 4.165 1.592 1.299 1.044 1.766 2.469 1.789 4.072ZM7.459 26.105c.017-.709.08-1.332.242-1.938.058-.23 0-.236-.196-.19-1.084.26-2.18.335-3.277.07-1.69-.404-2.803-1.471-3.484-3.04a10.21 10.21 0 0 1-.721-2.538c-.139-.923.363-1.696 1.206-1.886.801-.18 1.626.288 1.863 1.073.07.23.098.467.138.703a6.4 6.4 0 0 0 .421 1.373c.416.952 1.05 1.361 2.083 1.292 1.858-.127 3.444-.877 4.777-2.151.467-.45.946-.79 1.627-.664.651.121 1.09.508 1.28 1.137.19.64.012 1.194-.467 1.655-1.027.98-1.679 2.18-2.071 3.53-.185.629-.294 1.269-.208 1.932.075.588.335 1.05.865 1.35.67.38 1.397.582 2.152.692.733.11 1.258.57 1.408 1.257a1.59 1.59 0 0 1-.68 1.656c-.318.207-.67.305-1.045.248-1.43-.208-2.798-.6-3.975-1.477-1.148-.854-1.713-2.036-1.886-3.432-.029-.242-.035-.49-.052-.652Z" fill="#fff"/><path d="M26.561 24.761c-.617 0-1.228-.08-1.828-.225-.202-.052-.271-.04-.214.208.26 1.096.33 2.198.058 3.305-.392 1.569-1.356 2.653-2.804 3.34a9.746 9.746 0 0 1-2.919.842c-.83.11-1.638-.514-1.742-1.327-.121-.911.462-1.701 1.35-1.828a7.085 7.085 0 0 0 1.72-.462c1.06-.438 1.464-1.079 1.384-2.22a6.81 6.81 0 0 0-.687-2.538c-.421-.871-.934-1.667-1.65-2.336a1.571 1.571 0 0 1-.04-2.29c.652-.663 1.65-.67 2.313.011 1.252 1.28 2.77 2.03 4.529 2.308.41.063.825.057 1.229-.04.53-.122.9-.445 1.148-.924.334-.646.53-1.332.634-2.047.098-.68.456-1.16 1.12-1.361.634-.197 1.2-.03 1.65.455.317.34.45.767.386 1.223-.202 1.465-.612 2.855-1.529 4.043-1.027 1.344-2.47 1.834-4.108 1.863ZM5.367 7.494a7.03 7.03 0 0 1 2.111.207c.26.064.271-.011.22-.225-.254-1.05-.318-2.105-.081-3.166.392-1.765 1.511-2.907 3.144-3.6.808-.34 1.65-.565 2.515-.692.923-.132 1.72.462 1.84 1.367.122.877-.496 1.656-1.407 1.783-.67.092-1.31.282-1.927.565-.756.346-1.114.94-1.13 1.753-.024 1.09.288 2.106.767 3.069.392.784.865 1.511 1.517 2.117.72.663.738 1.695.075 2.353-.664.663-1.667.617-2.36-.08-1.344-1.35-2.965-2.13-4.869-2.285-1.061-.086-1.702.317-2.134 1.292a6.979 6.979 0 0 0-.502 1.794c-.133.923-.935 1.505-1.87 1.361-.818-.127-1.39-.957-1.257-1.84.179-1.176.502-2.301 1.108-3.334.917-1.563 2.319-2.312 4.096-2.44.046-.005.098 0 .144 0Z" fill="#FEA201"/><path d="M28.28 5.23c-1.293.005-2.366-1.05-2.36-2.331 0-1.286 1.038-2.342 2.313-2.347 1.321-.006 2.377 1.026 2.383 2.33a2.347 2.347 0 0 1-2.337 2.347ZM2.894 25.92c1.31 0 2.33 1.027 2.33 2.336a2.324 2.324 0 0 1-2.348 2.33c-1.298 0-2.324-1.038-2.324-2.347 0-1.31 1.02-2.325 2.342-2.32Z" fill="#fff"/><path d="M5.23 2.9c0 1.291-1.061 2.352-2.342 2.347A2.352 2.352 0 0 1 .552 2.893C.552 1.601 1.613.54 2.894.552A2.344 2.344 0 0 1 5.23 2.899ZM31.156 28.819a2.336 2.336 0 0 1-2.337 2.348 2.352 2.352 0 0 1-2.348-2.342 2.357 2.357 0 0 1 2.343-2.354 2.352 2.352 0 0 1 2.342 2.348Z" fill="#FEA201"/></g><defs><clipPath id="a"><path fill="#fff" d="M0 0h32v32H0z"/></clipPath></defs></svg>