<svg width="32" height="32" viewBox="0 0 32 32" fill="none" xmlns="http://www.w3.org/2000/svg">
<g clip-path="url(#clip0_4404_157)">
<path d="M24.2169 5.6735C24.2226 6.2849 24.1419 6.88475 23.9976 7.47307C23.9284 7.73839 23.9976 7.7557 24.2399 7.70379C25.3879 7.44423 26.536 7.38655 27.684 7.70955C29.4031 8.19405 30.4299 9.38223 31.0588 10.9857C31.353 11.7413 31.5491 12.5199 31.6645 13.3217C31.7856 14.1868 31.2087 14.9943 30.355 15.1212C29.455 15.2539 28.6589 14.6713 28.5262 13.7773C28.4455 13.2467 28.3185 12.7276 28.1282 12.22C27.6551 10.9684 27.0494 10.5127 25.4745 10.7031C23.9976 10.8819 22.7112 11.5336 21.5516 12.4392C21.2517 12.6757 21.0209 12.9814 20.6921 13.1948C19.9825 13.6447 19.0883 13.5408 18.5576 12.9064C18.0268 12.2777 18.0672 11.3548 18.6614 10.7607C19.9652 9.46298 20.7498 7.91143 21.0036 6.08879C21.0555 5.71965 21.0324 5.36204 20.9574 4.99867C20.8421 4.45649 20.5248 4.07004 20.0344 3.81626C19.3883 3.48172 18.7018 3.27985 17.9865 3.17603C17.0923 3.04913 16.4808 2.32815 16.55 1.46298C16.6192 0.586265 17.3634 -0.0885725 18.2634 0.00948083C19.7806 0.176748 21.217 0.62664 22.4285 1.60141C23.7265 2.64539 24.1938 4.07004 24.2169 5.6735Z" fill="white"/>
<path d="M7.45894 26.1054C7.47624 25.396 7.5397 24.7731 7.70123 24.1674C7.75892 23.9367 7.70123 23.931 7.50509 23.9771C6.42054 24.2366 5.32445 24.3116 4.22836 24.0463C2.53808 23.6426 1.42468 22.5755 0.743956 21.0067C0.392055 20.1934 0.15553 19.3455 0.0228461 18.4688C-0.115607 17.5459 0.386286 16.7731 1.22854 16.5827C2.03042 16.4039 2.85537 16.8711 3.09189 17.6555C3.16112 17.8862 3.18996 18.1227 3.23035 18.3592C3.31688 18.8322 3.4611 19.2878 3.65147 19.732C4.06683 20.6837 4.70141 21.0932 5.73404 21.024C7.59162 20.8971 9.17806 20.1472 10.5107 18.8726C10.978 18.4227 11.4568 18.0824 12.1375 18.2092C12.7894 18.3304 13.2278 18.7168 13.4182 19.3455C13.6086 19.9857 13.4297 20.5395 12.9509 21.0009C11.9241 21.9814 11.2722 23.1811 10.8799 24.5308C10.6953 25.1595 10.5857 25.7997 10.6722 26.463C10.7472 27.0514 11.0068 27.5128 11.5375 27.8127C12.2067 28.1934 12.9336 28.3953 13.6893 28.5049C14.422 28.6144 14.9469 29.0759 15.0969 29.7622C15.2354 30.3909 14.9585 31.0658 14.4162 31.4176C14.0989 31.6253 13.747 31.7233 13.372 31.6656C11.9414 31.458 10.5741 31.0658 9.39728 30.1891C8.24927 29.3354 7.68392 28.153 7.51086 26.7572C7.48201 26.5149 7.47624 26.2669 7.45894 26.1054Z" fill="white"/>
<path d="M26.5615 24.7612C25.9442 24.7612 25.3327 24.6805 24.7328 24.5363C24.5309 24.4844 24.4616 24.4959 24.5193 24.7439C24.7789 25.8398 24.8482 26.9415 24.577 28.0489C24.1847 29.6177 23.2213 30.7021 21.7733 31.3885C20.8446 31.8268 19.8696 32.0979 18.8543 32.2306C18.0236 32.3402 17.2159 31.7172 17.1121 30.904C16.9909 29.9926 17.5736 29.2025 18.462 29.0756C19.0562 28.989 19.6273 28.8448 20.1811 28.6141C21.2426 28.1758 21.6464 27.5355 21.5657 26.3935C21.508 25.4995 21.2657 24.6574 20.8792 23.8557C20.458 22.9847 19.9446 22.1888 19.2293 21.5197C18.5485 20.8852 18.5485 19.8701 19.1889 19.2299C19.8408 18.5665 20.8388 18.5608 21.5022 19.2414C22.7541 20.5218 24.2713 21.2717 26.0308 21.5485C26.4404 21.612 26.8557 21.6062 27.2596 21.5081C27.7903 21.387 28.1595 21.064 28.4076 20.5853C28.7422 19.9393 28.9383 19.2529 29.0421 18.5377C29.1402 17.8571 29.4979 17.3784 30.1613 17.1765C30.7959 16.9804 31.3612 17.1477 31.8112 17.6322C32.1285 17.9725 32.2612 18.3993 32.1977 18.8549C31.9958 20.32 31.5862 21.71 30.669 22.8982C29.6421 24.2421 28.1999 24.7324 26.5615 24.7612Z" fill="#FEA201"/>
<path d="M5.36692 7.49362C6.08226 7.45324 6.78606 7.52822 7.47833 7.70126C7.73793 7.76471 7.74946 7.68972 7.69754 7.47631C7.44371 6.42657 7.38026 5.37105 7.61678 4.30977C8.00906 2.54481 9.12823 1.40277 10.7608 0.710632C11.5685 0.370329 12.4107 0.145383 13.2761 0.0184906C14.1991 -0.11417 14.9952 0.479918 15.1163 1.38547C15.2375 2.26218 14.6202 3.04084 13.7087 3.16773C13.0395 3.26002 12.3992 3.45036 11.7819 3.73298C11.0262 4.07905 10.6685 4.67314 10.6512 5.48641C10.6281 6.57653 10.9397 7.59167 11.4185 8.5549C11.8108 9.33933 12.2838 10.0661 12.9357 10.6717C13.6568 11.335 13.6741 12.3674 13.0107 13.025C12.3473 13.6883 11.3435 13.6421 10.6512 12.9442C9.30706 11.5946 7.68601 10.8159 5.78228 10.6602C4.7208 10.5736 4.08045 10.9774 3.64779 11.9522C3.39396 12.5289 3.2382 13.1288 3.1459 13.746C3.01321 14.6688 2.21134 15.2514 1.27678 15.1072C0.457596 14.9803 -0.113523 14.1497 0.019161 13.2672C0.197996 12.0906 0.521054 10.9659 1.12679 9.93342C2.04404 8.37033 3.44588 7.62051 5.22269 7.49362C5.26884 7.48785 5.32076 7.49362 5.36692 7.49362Z" fill="#FEA201"/>
<path d="M28.2794 5.22926C26.9872 5.23503 25.9142 4.17951 25.9199 2.89905C25.9199 1.61282 26.9583 0.557306 28.2333 0.551538C29.5544 0.54577 30.6101 1.57821 30.6158 2.88175C30.6216 4.16798 29.5717 5.22349 28.2794 5.22926Z" fill="white"/>
<path d="M2.89368 25.9199C4.20322 25.9199 5.22431 26.9466 5.22431 28.2559C5.22431 29.5537 4.18014 30.5919 2.87637 30.5861C1.57837 30.5861 0.551514 29.5479 0.551514 28.2386C0.551514 26.9293 1.57261 25.9142 2.89368 25.9199Z" fill="white"/>
<path d="M5.23008 2.89912C5.23008 4.19111 4.1686 5.2524 2.88791 5.24663C1.59568 5.24086 0.551514 4.18535 0.551514 2.89335C0.551514 1.60135 1.61299 0.540071 2.89368 0.551607C4.19168 0.557375 5.23008 1.60712 5.23008 2.89912Z" fill="#FEA201"/>
<path d="M31.1558 28.819C31.1558 30.1167 30.1174 31.1665 28.8194 31.1665C27.5272 31.1665 26.4772 30.1167 26.4715 28.8247C26.4657 27.5385 27.5272 26.4714 28.8136 26.4714C30.1059 26.4772 31.15 27.5212 31.1558 28.819Z" fill="#FEA201"/>
</g>
<defs>
<clipPath id="clip0_4404_157">
<rect width="32" height="32" fill="white"/>
</clipPath>
</defs>
</svg>
