<svg xmlns="http://www.w3.org/2000/svg" fill="none" viewBox="0 0 70 70">
	<path fill="url(#a)" d="M69.992 9.684c0-5.34-4.345-9.684-9.684-9.684-4.64 0-8.525 3.28-9.465 7.641H37.41c-1.825 0-3.541.711-4.833 2.002L2.014 40.2a6.79 6.79 0 0 0-2.003 4.834 6.79 6.79 0 0 0 2.003 4.834l18.13 18.13A6.791 6.791 0 0 0 24.978 70a6.791 6.791 0 0 0 4.833-2.002l10.574-10.574a1.367 1.367 0 0 0-1.933-1.934L27.878 66.064a4.106 4.106 0 0 1-5.8 0L3.947 47.934a4.074 4.074 0 0 1-1.201-2.901c0-1.096.426-2.126 1.201-2.9l30.564-30.556a4.074 4.074 0 0 1 2.9-1.201h13.24a9.61 9.61 0 0 0 2.809 6.155 1.367 1.367 0 1 0 1.934-1.933 6.897 6.897 0 0 1-2.002-4.222h2.15a4.106 4.106 0 0 1 4.102 4.101V32.6a4.074 4.074 0 0 1-1.202 2.9l-11.29 11.29a1.367 1.367 0 0 0 1.934 1.934l11.29-11.29a6.791 6.791 0 0 0 2.002-4.834V19.145a9.648 9.648 0 0 0 7.614-9.461Zm-7.614 6.637v-1.844a6.843 6.843 0 0 0-6.836-6.836h-1.877c.874-2.838 3.521-4.907 6.643-4.907a6.958 6.958 0 0 1 6.95 6.95 6.924 6.924 0 0 1-4.88 6.637Z"/>
	<path fill="url(#b)" d="M18.863 44.96a1.367 1.367 0 0 0-1.933-1.934l-3.291 3.29a1.367 1.367 0 0 0 0 1.934l8.12 8.12a1.363 1.363 0 0 0 1.933 0c.534-.533.534-1.399 0-1.933l-3.17-3.17 2.063-2.063a1.368 1.368 0 0 0-1.934-1.934l-2.063 2.063-2.05-2.05 2.325-2.324Z"/>
	<path fill="url(#c)" d="M35.003 44.497a1.367 1.367 0 0 0 .085-2.731l-4.52-.289c.38-.653.596-1.392.62-2.16.038-1.21-.4-2.333-1.23-3.164-1.697-1.697-4.51-1.643-6.274.12l-2.158 2.157v.002l-.002.001a1.367 1.367 0 0 0 0 1.934l8.12 8.12a1.363 1.363 0 0 0 1.934 0c.533-.534.533-1.4 0-1.934l-2.427-2.426 5.763.367.089.003Zm-9.385-6.291c.684-.685 1.787-.74 2.407-.12.291.292.444.699.43 1.145a1.887 1.887 0 0 1-.55 1.262c-.274.274-.746.75-1.177 1.186-.426-.422-.889-.88-1.152-1.144-.226-.225-.702-.7-1.146-1.14l1.188-1.19Z"/>
	<path fill="url(#d)" d="m48.316 31.747 3.422-3.421a1.367 1.367 0 0 0-1.934-1.934l-2.455 2.455-2.126-2.127 2.202-2.202a1.367 1.367 0 0 0-1.933-1.934l-2.203 2.203-2.127-2.127 2.455-2.455a1.367 1.367 0 0 0-1.933-1.934l-3.422 3.422a1.367 1.367 0 0 0 0 1.933l4.06 4.06.001.001 4.06 4.06a1.368 1.368 0 0 0 1.933 0Z"/>
	<path fill="url(#e)" d="M39.422 40.077c.363 0 .71-.145.967-.4l3.421-3.422a1.367 1.367 0 0 0-1.933-1.934l-2.455 2.455-2.127-2.127 2.203-2.203a1.367 1.367 0 0 0-1.933-1.933l-2.203 2.203-2.127-2.127 2.455-2.455a1.367 1.367 0 0 0-1.933-1.933l-3.422 3.421a1.367 1.367 0 0 0 0 1.934l8.12 8.12c.257.256.605.4.967.4Z"/>
	<path fill="url(#f)" d="M43.768 50.74c-.36 0-.712.146-.966.4-.255.255-.4.607-.4.967s.145.712.4.967c.254.254.607.4.966.4.36 0 .713-.146.967-.4.254-.255.4-.607.4-.967s-.146-.712-.4-.967a1.377 1.377 0 0 0-.967-.4Z"/>
	<defs>
		<linearGradient id="a" x1="35.002" x2="35.002" y1="0" y2="70" gradientUnits="userSpaceOnUse">
			<stop stop-color="#03BAFE"/>
			<stop offset="1" stop-color="#0068FF"/>
		</linearGradient>
		<linearGradient id="b" x1="18.666" x2="18.666" y1="42.625" y2="56.771" gradientUnits="userSpaceOnUse">
			<stop stop-color="#03BAFE"/>
			<stop offset="1" stop-color="#0068FF"/>
		</linearGradient>
		<linearGradient id="c" x1="28.746" x2="28.746" y1="34.915" y2="48.887" gradientUnits="userSpaceOnUse">
			<stop stop-color="#03BAFE"/>
			<stop offset="1" stop-color="#0068FF"/>
		</linearGradient>
		<linearGradient id="d" x1="45" x2="45" y1="17.871" y2="32.147" gradientUnits="userSpaceOnUse">
			<stop stop-color="#03BAFE"/>
			<stop offset="1" stop-color="#0068FF"/>
		</linearGradient>
		<linearGradient id="e" x1="37.073" x2="37.073" y1="25.8" y2="40.077" gradientUnits="userSpaceOnUse">
			<stop stop-color="#03BAFE"/>
			<stop offset="1" stop-color="#0068FF"/>
		</linearGradient>
		<linearGradient id="f" x1="43.768" x2="43.768" y1="50.74" y2="53.474" gradientUnits="userSpaceOnUse">
			<stop stop-color="#03BAFE"/>
			<stop offset="1" stop-color="#0068FF"/>
		</linearGradient>
	</defs>
</svg>
