<svg xmlns="http://www.w3.org/2000/svg" xmlns:xlink="http://www.w3.org/1999/xlink"><defs><linearGradient id="b" x1="37.499" y1="23.516" x2="37.499" y2="51.483" gradientUnits="userSpaceOnUse"><stop stop-color="#03BAFE"/><stop offset="1" stop-color="#0068FF"/></linearGradient><linearGradient id="c" x1="38.027" y1="32.954" x2="38.027" y2="42.046" gradientUnits="userSpaceOnUse"><stop stop-color="#03BAFE"/><stop offset="1" stop-color="#0068FF"/></linearGradient><linearGradient id="d" x1="37.499" y1="0" x2="37.499" y2="75" gradientUnits="userSpaceOnUse"><stop stop-color="#03BAFE"/><stop offset="1" stop-color="#0068FF"/></linearGradient><linearGradient id="e" x1="64.274" y1="27.276" x2="64.274" y2="30.206" gradientUnits="userSpaceOnUse"><stop stop-color="#03BAFE"/><stop offset="1" stop-color="#0068FF"/></linearGradient><linearGradient id="f" x1="37.498" y1="7.891" x2="37.498" y2="68.415" gradientUnits="userSpaceOnUse"><stop stop-color="#03BAFE"/><stop offset="1" stop-color="#0068FF"/></linearGradient><clipPath id="a"><path fill="#fff" d="M0 0h75v75H0z"/></clipPath><linearGradient id="b" x1="37.5" y1="15.982" x2="37.5" y2="75" gradientUnits="userSpaceOnUse"><stop stop-color="#03BAFE"/><stop offset="1" stop-color="#0068FF"/></linearGradient><linearGradient id="c" x1="43.558" y1="51.026" x2="43.558" y2="53.95" gradientUnits="userSpaceOnUse"><stop stop-color="#03BAFE"/><stop offset="1" stop-color="#0068FF"/></linearGradient><linearGradient id="d" x1="48.135" y1="3.216" x2="48.135" y2="20.123" gradientUnits="userSpaceOnUse"><stop stop-color="#03BAFE"/><stop offset="1" stop-color="#0068FF"/></linearGradient><linearGradient id="e" x1="33.857" y1="0" x2="33.857" y2="14.411" gradientUnits="userSpaceOnUse"><stop stop-color="#03BAFE"/><stop offset="1" stop-color="#0068FF"/></linearGradient><linearGradient id="f" x1="26.84" y1="0" x2="26.84" y2="9.356" gradientUnits="userSpaceOnUse"><stop stop-color="#03BAFE"/><stop offset="1" stop-color="#0068FF"/></linearGradient><linearGradient id="g" x1="7.972" y1="51.026" x2="7.972" y2="53.95" gradientUnits="userSpaceOnUse"><stop stop-color="#03BAFE"/><stop offset="1" stop-color="#0068FF"/></linearGradient><clipPath id="a"><path fill="#fff" d="M0 0h75v75H0z"/></clipPath><linearGradient id="a" x1="35.002" x2="35.002" y1="0" y2="70" gradientUnits="userSpaceOnUse"><stop stop-color="#03BAFE"/><stop offset="1" stop-color="#0068FF"/></linearGradient><linearGradient id="b" x1="18.666" x2="18.666" y1="42.625" y2="56.771" gradientUnits="userSpaceOnUse"><stop stop-color="#03BAFE"/><stop offset="1" stop-color="#0068FF"/></linearGradient><linearGradient id="c" x1="28.746" x2="28.746" y1="34.915" y2="48.887" gradientUnits="userSpaceOnUse"><stop stop-color="#03BAFE"/><stop offset="1" stop-color="#0068FF"/></linearGradient><linearGradient id="d" x1="45" x2="45" y1="17.871" y2="32.147" gradientUnits="userSpaceOnUse"><stop stop-color="#03BAFE"/><stop offset="1" stop-color="#0068FF"/></linearGradient><linearGradient id="e" x1="37.073" x2="37.073" y1="25.8" y2="40.077" gradientUnits="userSpaceOnUse"><stop stop-color="#03BAFE"/><stop offset="1" stop-color="#0068FF"/></linearGradient><linearGradient id="f" x1="43.768" x2="43.768" y1="50.74" y2="53.474" gradientUnits="userSpaceOnUse"><stop stop-color="#03BAFE"/><stop offset="1" stop-color="#0068FF"/></linearGradient><linearGradient id="b" x1="22.882" y1="29.242" x2="22.882" y2="75" gradientUnits="userSpaceOnUse"><stop stop-color="#03BAFE"/><stop offset="1" stop-color="#0068FF"/></linearGradient><linearGradient id="c" x1="28.686" y1="58.276" x2="28.686" y2="61.205" gradientUnits="userSpaceOnUse"><stop stop-color="#03BAFE"/><stop offset="1" stop-color="#0068FF"/></linearGradient><linearGradient id="d" x1="59.794" y1="18.174" x2="59.794" y2="21.103" gradientUnits="userSpaceOnUse"><stop stop-color="#03BAFE"/><stop offset="1" stop-color="#0068FF"/></linearGradient><linearGradient id="e" x1="52.118" y1="0" x2="52.118" y2="45.754" gradientUnits="userSpaceOnUse"><stop stop-color="#03BAFE"/><stop offset="1" stop-color="#0068FF"/></linearGradient><clipPath id="a"><path fill="#fff" d="M0 0h75v75H0z"/></clipPath></defs><symbol id="arrow-select" viewBox="0 0 11 6"><g fill="none"><path d="m1.5 0 3.75 3.75L9 0l1.5.75L5.25 6 0 .75 1.5 0Z" fill="currentColor"/></g></symbol><symbol id="arrow-up" viewBox="0 0 15 9"><g fill="none"><path d="m2.168 9 5.347-5.347L12.86 9 15 7.93 7.515.446.029 7.931 2.168 9Z" fill="#03BAFE"/></g></symbol><symbol id="icon-convenient" viewBox="0 0 75 75"><g fill="none"><g clip-path="url(#a)"><path d="M37.499 51.483c-7.71 0-13.983-6.272-13.983-13.983 0-7.71 6.273-13.984 13.983-13.984 7.71 0 13.983 6.273 13.983 13.984 0 7.71-6.273 13.983-13.983 13.983Zm0-25.037c-6.095 0-11.054 4.959-11.054 11.054 0 6.095 4.96 11.054 11.054 11.054 6.095 0 11.054-4.959 11.054-11.054 0-6.095-4.959-11.054-11.054-11.054Z" fill="url(#b)"/><path d="M36.502 42.046a1.46 1.46 0 0 1-1.03-.423l-3.114-3.082a1.465 1.465 0 0 1 2.06-2.082l2.079 2.056 5.132-5.132a1.465 1.465 0 0 1 2.072 2.072l-6.163 6.162a1.46 1.46 0 0 1-1.036.43Z" fill="url(#c)"/><path d="M37.498 75c-.217 0-.434-.048-.635-.145a61.333 61.333 0 0 1-15.958-11.088 61.611 61.611 0 0 1-6.87-7.834A24.361 24.361 0 0 1 9.258 41.38V12.487c0-.809.656-1.465 1.465-1.465 9.961 0 19.334-3.851 25.714-10.566a1.465 1.465 0 0 1 2.124 0c6.378 6.715 15.75 10.566 25.713 10.566.808 0 1.464.656 1.464 1.465v9.662a1.465 1.465 0 0 1-2.93 0v-8.223C53.13 13.584 44.053 9.858 37.5 3.543c-6.554 6.315-15.633 10.04-25.311 10.383V41.38c0 4.651 1.454 9.082 4.204 12.814a58.686 58.686 0 0 0 6.544 7.462 58.402 58.402 0 0 0 14.561 10.25 58.372 58.372 0 0 0 14.564-10.25 58.673 58.673 0 0 0 6.545-7.464 21.453 21.453 0 0 0 4.203-12.813v-6.046a1.465 1.465 0 1 1 2.93 0v6.046c0 5.28-1.651 10.311-4.775 14.55a61.611 61.611 0 0 1-6.872 7.838 61.289 61.289 0 0 1-15.96 11.088c-.2.097-.418.145-.635.145Z" fill="url(#d)"/><path d="M64.274 30.206a1.465 1.465 0 1 0 0-2.93 1.465 1.465 0 0 0 0 2.93Z" fill="url(#e)"/><path d="M37.498 68.415c-.242 0-.485-.06-.704-.18a55.552 55.552 0 0 1-18.043-15.779 18.541 18.541 0 0 1-3.633-11.076V17.97c0-.736.546-1.359 1.276-1.453 7.509-.974 14.494-3.85 20.203-8.314a1.465 1.465 0 0 1 1.805 0c5.707 4.465 12.692 7.34 20.2 8.314.73.095 1.277.717 1.277 1.453v23.41c0 4.02-1.256 7.85-3.632 11.075a55.73 55.73 0 0 1-6.217 7.09 55.523 55.523 0 0 1-11.829 8.69c-.219.12-.461.18-.703.18Zm-19.45-49.177V41.38c0 3.391 1.058 6.62 3.06 9.338a52.81 52.81 0 0 0 5.89 6.715 52.622 52.622 0 0 0 10.5 7.84 52.603 52.603 0 0 0 16.39-14.557 15.632 15.632 0 0 0 3.061-9.337V19.238c-7.157-1.13-13.835-3.891-19.45-8.042-5.616 4.15-12.295 6.912-19.452 8.042Z" fill="url(#f)"/></g></g></symbol><symbol id="icon-drop" viewBox="0 0 100 100"><g fill="none"><path d="M87.222 0H12.778C5.732 0 0 5.732 0 12.778v74.444C0 94.268 5.732 100 12.778 100h74.444C94.268 100 100 94.268 100 87.222V12.778C100 5.732 94.268 0 87.222 0Zm6.888 87.222a6.896 6.896 0 0 1-6.888 6.888H12.778a6.896 6.896 0 0 1-6.888-6.888V76.478l19.386-16.494a1.903 1.903 0 0 1 2.453-.015l12.144 10.084c1.17.972 2.89.892 3.965-.185l28.854-28.897a1.888 1.888 0 0 1 1.447-.557c.316.016.916.129 1.382.702L94.11 64.005v23.217Zm0-32.56-14.017-17.26a7.808 7.808 0 0 0-5.653-2.871 7.816 7.816 0 0 0-5.917 2.278L41.57 63.805l-10.076-8.367a7.783 7.783 0 0 0-10.034.06L5.89 68.745V12.778a6.896 6.896 0 0 1 6.888-6.888h74.444a6.896 6.896 0 0 1 6.888 6.888v41.883Z" fill="currentColor"/><path d="M31.202 12C23.37 12 17 18.371 17 26.202c0 7.83 6.37 14.201 14.202 14.201 7.83 0 14.201-6.37 14.201-14.201S39.034 12 31.203 12Zm0 22.514c-4.583 0-8.312-3.73-8.312-8.312 0-4.583 3.729-8.312 8.312-8.312 4.583 0 8.311 3.729 8.311 8.312 0 4.583-3.728 8.311-8.311 8.311Z" fill="currentColor"/></g></symbol><symbol id="icon-easy" viewBox="0 0 75 75"><g fill="none"><g clip-path="url(#a)"><path d="M61.182 29.976h-27.94a8.416 8.416 0 0 0 2.078-5.54c0-4.662-3.793-8.454-8.454-8.454-4.662 0-8.454 3.792-8.454 8.454 0 2.118.785 4.055 2.076 5.54H13.82c-4.03 0-7.309 3.28-7.309 7.31v8.624a1.462 1.462 0 0 0 2.924 0v-8.625a4.39 4.39 0 0 1 4.385-4.385h40.93a4.39 4.39 0 0 1 4.386 4.385v7.894H43.932c-4.03 0-7.309 3.279-7.309 7.31 0 4.03 3.28 7.308 7.31 7.308h15.202v7.894a4.39 4.39 0 0 1-4.385 4.385H13.82a4.39 4.39 0 0 1-4.386-4.385v-8.636a1.462 1.462 0 1 0-2.924 0v8.636c0 4.03 3.279 7.309 7.31 7.309h47.362c4.03 0 7.309-3.279 7.309-7.309V37.285c0-4.03-3.28-7.309-7.31-7.309Zm-34.316-11.07c3.049 0 5.53 2.48 5.53 5.53 0 3.05-2.481 5.53-5.53 5.53-3.05 0-5.53-2.48-5.53-5.53 0-3.05 2.48-5.53 5.53-5.53ZM60.593 32.9h.589a4.39 4.39 0 0 1 4.385 4.385v7.894H62.06v-7.894a7.27 7.27 0 0 0-1.466-4.385ZM39.547 52.488a4.39 4.39 0 0 1 4.385-4.385h21.635v8.77H43.932a4.39 4.39 0 0 1-4.385-4.385Zm21.635 19.588h-.589a7.27 7.27 0 0 0 1.466-4.385v-7.894h3.508v7.894a4.39 4.39 0 0 1-4.385 4.385Z" fill="url(#b)"/><path d="M43.558 51.026c-.386 0-.763.156-1.035.428-.272.272-.427.65-.427 1.034s.155.761.427 1.033c.273.272.65.429 1.035.429.385 0 .76-.157 1.034-.429.271-.272.428-.649.428-1.033 0-.385-.157-.762-.428-1.034a1.472 1.472 0 0 0-1.034-.428Z" fill="url(#c)"/><path d="M48.135 20.123c4.661 0 8.454-3.792 8.454-8.454 0-4.66-3.793-8.453-8.454-8.453-4.662 0-8.454 3.792-8.454 8.453 0 4.662 3.792 8.454 8.454 8.454Zm0-13.984c3.05 0 5.53 2.481 5.53 5.53 0 3.05-2.48 5.531-5.53 5.531-3.05 0-5.53-2.48-5.53-5.53 0-3.05 2.48-5.53 5.53-5.53Z" fill="url(#d)"/><path d="M33.857 14.41c.807 0 1.462-.654 1.462-1.461V1.462a1.462 1.462 0 1 0-2.924 0v11.487c0 .807.655 1.462 1.462 1.462Z" fill="url(#e)"/><path d="M26.84 9.356c.808 0 1.462-.655 1.462-1.462V1.462a1.462 1.462 0 1 0-2.924 0v6.432c0 .807.655 1.462 1.462 1.462Z" fill="url(#f)"/><path d="M7.972 53.95c.384 0 .761-.157 1.033-.429.272-.272.429-.649.429-1.033 0-.385-.157-.762-.429-1.034a1.47 1.47 0 0 0-1.033-.428c-.385 0-.762.156-1.034.428s-.428.65-.428 1.034.156.761.428 1.033c.272.272.65.429 1.034.429Z" fill="url(#g)"/></g></g></symbol><symbol id="icon-free" viewBox="0 0 70 70"><g fill="none"><path fill="url(#a)" d="M69.992 9.684c0-5.34-4.345-9.684-9.684-9.684-4.64 0-8.525 3.28-9.465 7.641H37.41a6.793 6.793 0 0 0-4.833 2.002L2.014 40.2a6.79 6.79 0 0 0-2.003 4.834 6.79 6.79 0 0 0 2.003 4.834l18.13 18.13A6.791 6.791 0 0 0 24.978 70a6.791 6.791 0 0 0 4.833-2.002l10.574-10.574a1.367 1.367 0 0 0-1.933-1.934L27.878 66.064a4.106 4.106 0 0 1-5.8 0L3.947 47.934a4.074 4.074 0 0 1-1.201-2.901 4.07 4.07 0 0 1 1.201-2.9l30.564-30.556a4.074 4.074 0 0 1 2.9-1.201h13.24a9.61 9.61 0 0 0 2.809 6.155 1.367 1.367 0 1 0 1.934-1.933 6.897 6.897 0 0 1-2.002-4.222h2.15a4.106 4.106 0 0 1 4.102 4.101V32.6a4.074 4.074 0 0 1-1.202 2.9l-11.29 11.29a1.367 1.367 0 0 0 1.934 1.934l11.29-11.29a6.791 6.791 0 0 0 2.002-4.834V19.145a9.648 9.648 0 0 0 7.614-9.461Zm-7.614 6.637v-1.844a6.843 6.843 0 0 0-6.836-6.836h-1.877c.874-2.838 3.521-4.907 6.643-4.907a6.958 6.958 0 0 1 6.95 6.95 6.924 6.924 0 0 1-4.88 6.637Z"/><path fill="url(#b)" d="M18.863 44.96a1.367 1.367 0 0 0-1.933-1.934l-3.291 3.29a1.367 1.367 0 0 0 0 1.934l8.12 8.12a1.363 1.363 0 0 0 1.933 0 1.366 1.366 0 0 0 0-1.933l-3.17-3.17 2.063-2.063a1.368 1.368 0 0 0-1.934-1.934l-2.063 2.063-2.05-2.05 2.325-2.324Z"/><path fill="url(#c)" d="M35.003 44.497a1.367 1.367 0 0 0 .085-2.731l-4.52-.289c.38-.653.596-1.392.62-2.16.038-1.21-.4-2.333-1.23-3.164-1.697-1.697-4.51-1.643-6.274.12l-2.158 2.157v.002l-.002.001a1.367 1.367 0 0 0 0 1.934l8.12 8.12a1.363 1.363 0 0 0 1.934 0 1.37 1.37 0 0 0 0-1.934l-2.427-2.426 5.763.367.089.003Zm-9.385-6.291c.684-.685 1.787-.74 2.407-.12.291.292.444.699.43 1.145a1.887 1.887 0 0 1-.55 1.262c-.274.274-.746.75-1.177 1.186-.426-.422-.889-.88-1.152-1.144-.226-.225-.702-.7-1.146-1.14l1.188-1.19Z"/><path fill="url(#d)" d="m48.316 31.747 3.422-3.421a1.367 1.367 0 0 0-1.934-1.934l-2.455 2.455-2.126-2.127 2.202-2.202a1.367 1.367 0 0 0-1.933-1.934l-2.203 2.203-2.127-2.127 2.455-2.455a1.367 1.367 0 0 0-1.933-1.934l-3.422 3.422a1.367 1.367 0 0 0 0 1.933l4.06 4.06.001.001 4.06 4.06a1.368 1.368 0 0 0 1.933 0Z"/><path fill="url(#e)" d="M39.422 40.077c.363 0 .71-.145.967-.4l3.421-3.422a1.367 1.367 0 0 0-1.933-1.934l-2.455 2.455-2.127-2.127 2.203-2.203a1.367 1.367 0 0 0-1.933-1.933l-2.203 2.203-2.127-2.127 2.455-2.455a1.367 1.367 0 0 0-1.933-1.933l-3.422 3.421a1.367 1.367 0 0 0 0 1.934l8.12 8.12c.257.256.605.4.967.4Z"/><path fill="url(#f)" d="M43.768 50.74c-.36 0-.712.146-.966.4-.255.255-.4.607-.4.967s.145.712.4.967c.254.254.607.4.966.4.36 0 .713-.146.967-.4.254-.255.4-.607.4-.967s-.146-.712-.4-.967a1.377 1.377 0 0 0-.967-.4Z"/></g></symbol><symbol id="icon-intra" viewBox="0 0 75 75"><g fill="none"><g clip-path="url(#a)"><path d="M45.754 53.324a4.372 4.372 0 0 0-1.294-2.82l-5.564-5.566a5.834 5.834 0 0 0 2.37-1.434l.142-.142c2.452-2.452 2.255-6.638-.438-9.332-1.282-1.281-2.94-2.045-4.669-2.149-1.796-.108-3.451.5-4.663 1.711l-.142.142a5.83 5.83 0 0 0-1.434 2.37l-5.565-5.564c-1.64-1.64-4.209-1.739-5.727-.22l-5.043 5.043c-.618.617-.874 1.514-.687 2.4.204.962.875 1.749 1.796 2.105.581.224 1.108.57 1.566 1.028l.16.16c.775.775 1.236 1.76 1.297 2.774.057.947-.248 1.805-.858 2.415-.61.61-1.469.916-2.416.858-1.013-.061-1.998-.522-2.773-1.297l-.16-.16a4.506 4.506 0 0 1-1.029-1.566 2.893 2.893 0 0 0-2.105-1.796c-.886-.187-1.783.07-2.4.687l-5.037 5.038c-1.518 1.518-1.42 4.087.22 5.727L6.866 59.3c-.9.285-1.71.774-2.371 1.435l-.142.142c-2.452 2.452-2.255 6.638.439 9.332 1.43 1.43 3.28 2.156 5.068 2.156 1.58 0 3.113-.568 4.263-1.718l.142-.142a5.83 5.83 0 0 0 1.435-2.371l5.564 5.565A4.374 4.374 0 0 0 24.326 75a3.761 3.761 0 0 0 2.666-1.08l4.797-4.797a7.428 7.428 0 0 0 1.631 2.435l.16.16c2.694 2.693 6.88 2.89 9.332.438 2.452-2.452 2.255-6.638-.439-9.332l-.16-.16a7.425 7.425 0 0 0-2.435-1.631l4.803-4.803c.748-.748 1.14-1.807 1.073-2.906Zm-3.145.835-5.043 5.043c-.617.617-.874 1.514-.687 2.4.204.962.875 1.75 1.796 2.105.582.225 1.109.57 1.567 1.03l.16.159c1.551 1.551 1.748 3.879.438 5.189s-3.637 1.113-5.188-.439l-.16-.16a4.506 4.506 0 0 1-1.03-1.566 2.893 2.893 0 0 0-2.105-1.796c-.885-.187-1.782.07-2.4.687l-5.037 5.037c-.203.203-.47.233-.658.22a1.468 1.468 0 0 1-.926-.44l-2.232-2.233 4.861-4.861a1.465 1.465 0 0 0-2.072-2.072l-4.86 4.861-1.518-1.516a2.87 2.87 0 0 0-2.022-.855c-.254 0-.51.036-.758.11a2.49 2.49 0 0 0-1.752 1.896 2.903 2.903 0 0 1-.79 1.476l-.141.141c-1.31 1.31-3.638 1.113-5.19-.438-1.55-1.552-1.747-3.879-.438-5.189l.142-.141a2.903 2.903 0 0 1 1.476-.79 2.49 2.49 0 0 0 1.896-1.752c.287-.969.002-2.034-.745-2.78l-5.82-5.821a1.469 1.469 0 0 1-.441-.926c-.012-.189.017-.456.22-.658l4.797-4.797a7.427 7.427 0 0 0 1.631 2.435l.16.16c2.694 2.694 6.88 2.89 9.332.438 2.452-2.452 2.255-6.638-.438-9.332l-.16-.16a7.422 7.422 0 0 0-2.436-1.63l4.803-4.803c.37-.37 1.095-.269 1.584.22l5.82 5.82c.747.747 1.813 1.033 2.781.746a2.49 2.49 0 0 0 1.752-1.896 2.902 2.902 0 0 1 .79-1.476l.142-.142c.61-.61 1.468-.915 2.415-.858 1.014.061 1.999.522 2.773 1.297 1.552 1.551 1.748 3.879.439 5.188l-.142.142a2.903 2.903 0 0 1-1.476.79 2.49 2.49 0 0 0-1.896 1.751c-.287.969-.002 2.035.745 2.781l5.82 5.82c.261.261.422.599.442.927.011.188-.018.455-.22.658Z" fill="url(#b)"/><path d="M29.722 58.705a1.476 1.476 0 0 0-1.036-.43c-.385 0-.763.157-1.035.43-.273.272-.43.65-.43 1.035 0 .386.157.764.43 1.036.272.273.649.43 1.035.43.386 0 .764-.157 1.036-.43.272-.272.43-.65.43-1.036 0-.385-.158-.763-.43-1.035Z" fill="url(#c)"/><path d="M60.83 18.603a1.476 1.476 0 0 0-1.036-.43c-.386 0-.764.157-1.036.43-.273.272-.43.65-.43 1.035 0 .386.157.764.43 1.036.272.273.65.43 1.035.43.386 0 .764-.157 1.036-.43.273-.272.43-.65.43-1.036 0-.385-.157-.763-.43-1.035Z" fill="url(#d)"/><path d="M71.8 33.667a7.475 7.475 0 0 0-2.795-1.768l4.911-4.911c.749-.748 1.14-1.808 1.073-2.906a4.373 4.373 0 0 0-1.294-2.821l-5.454-5.456a5.837 5.837 0 0 0 2.045-1.321l.141-.142c2.452-2.452 2.256-6.638-.438-9.332-2.694-2.693-6.88-2.89-9.332-.438l-.142.141a5.842 5.842 0 0 0-1.321 2.046l-5.462-5.461c-1.64-1.64-4.209-1.74-5.727-.22l-4.91 4.91a7.477 7.477 0 0 0-1.769-2.794l-.16-.16c-2.693-2.693-6.88-2.89-9.331-.438-2.452 2.452-2.256 6.638.438 9.331l.16.16a7.477 7.477 0 0 0 2.794 1.768l-4.911 4.911c-1.518 1.518-1.42 4.087.221 5.728l5.826 5.821c.746.747 1.812 1.032 2.78.745a2.49 2.49 0 0 0 1.752-1.896 2.902 2.902 0 0 1 .79-1.476l.142-.142c.61-.61 1.47-.915 2.415-.858 1.014.061 1.999.522 2.774 1.297.774.775 1.235 1.76 1.296 2.773.057.947-.247 1.805-.858 2.416l-.142.141a2.903 2.903 0 0 1-1.475.79 2.49 2.49 0 0 0-1.897 1.752c-.287.968-.001 2.033.745 2.78l5.815 5.82a4.355 4.355 0 0 0 3.067 1.297c.982 0 1.94-.356 2.66-1.076l4.911-4.911a7.477 7.477 0 0 0 1.768 2.793l.16.16c2.694 2.694 6.88 2.89 9.332.439 2.452-2.452 2.255-6.639-.439-9.332l-.16-.16Zm-1.474 7.42c-1.31 1.31-3.638 1.113-5.189-.439l-.16-.16a4.512 4.512 0 0 1-1.106-1.783 2.922 2.922 0 0 0-2.084-1.927c-.911-.218-1.836.032-2.474.67l-5.158 5.157c-.202.203-.47.233-.658.22a1.468 1.468 0 0 1-.925-.44l-5.56-5.564c.9-.284 1.71-.774 2.372-1.435l.141-.141c1.212-1.212 1.82-2.868 1.711-4.664-.104-1.729-.868-3.387-2.15-4.668-1.28-1.282-2.939-2.045-4.668-2.15-1.796-.107-3.451.5-4.663 1.711l-.142.142a5.832 5.832 0 0 0-1.434 2.372l-5.57-5.566a1.469 1.469 0 0 1-.442-.927c-.011-.188.018-.455.22-.658l5.158-5.157c.638-.638.889-1.563.67-2.474a2.923 2.923 0 0 0-1.927-2.084 4.517 4.517 0 0 1-1.783-1.106l-.16-.16c-1.551-1.552-1.748-3.88-.438-5.189 1.309-1.31 3.637-1.113 5.188.439l.16.16c.51.51.893 1.126 1.106 1.783a2.922 2.922 0 0 0 2.084 1.926c.911.219 1.836-.031 2.474-.67l5.158-5.157c.37-.37 1.095-.268 1.584.22l5.691 5.693c.722.721 1.757 1.015 2.703.767a2.498 2.498 0 0 0 1.79-1.76c.138-.497.388-.929.742-1.283l.142-.142c1.31-1.31 3.637-1.113 5.188.439 1.552 1.551 1.748 3.878.439 5.188l-.142.142a2.884 2.884 0 0 1-1.282.743 2.498 2.498 0 0 0-1.76 1.79c-.249.945.045 1.98.767 2.702l5.685 5.685c.26.26.421.598.44.926.012.188-.017.455-.22.658l-2.35 2.35-4.855-4.854a1.465 1.465 0 1 0-2.071 2.072l4.854 4.854-.735.736c-.638.638-.889 1.563-.67 2.474a2.923 2.923 0 0 0 1.926 2.084 4.517 4.517 0 0 1 1.784 1.106l.16.16c1.552 1.551 1.748 3.88.439 5.189Z" fill="url(#e)"/></g></g></symbol><symbol id="icon-user" viewBox="0 0 28 28"><g fill="none"><path d="M22 23v-2a4 4 0 0 0-4-4h-8a4 4 0 0 0-4 4v2M18 9a4 4 0 1 1-8 0 4 4 0 0 1 8 0Z" stroke="currentColor" stroke-linecap="round" stroke-linejoin="round"/></g></symbol><symbol id="play" viewBox="0 0 26 30"><g fill="none"><path d="M25 13.553c1.333.77 1.333 2.695 0 3.465L3.572 29.389c-1.334.77-3-.192-3-1.732V2.914c0-1.54 1.666-2.502 3-1.732L25 13.553Z" fill="currentColor"/></g></symbol><symbol id="social-facebook" viewBox="0 0 9 15"><g fill="none"><path d="m7.56 8.728.383-2.594H5.551V4.451c0-.71.334-1.401 1.406-1.401h1.087V.842S7.057.667 6.114.667c-1.971 0-3.26 1.242-3.26 3.49v1.977H.665v2.594h2.19v6.27h2.697v-6.27h2.01Z" fill="currentColor"/></g></symbol><symbol id="social-instagram" viewBox="0 0 13 15"><g fill="none"><path d="M6.357 4.405c-1.63 0-2.945 1.36-2.945 3.047S4.726 10.5 6.357 10.5c1.63 0 2.945-1.36 2.945-3.047 0-1.686-1.315-3.047-2.945-3.047Zm0 5.028c-1.054 0-1.915-.888-1.915-1.98 0-1.093.859-1.982 1.915-1.982S8.27 6.36 8.27 7.452c0 1.093-.86 1.981-1.914 1.981Zm3.752-5.152c0 .395-.307.71-.687.71a.698.698 0 0 1-.687-.71.7.7 0 0 1 .687-.711.7.7 0 0 1 .687.71Zm1.95.72c-.043-.951-.253-1.794-.927-2.489-.672-.695-1.487-.912-2.407-.96-.948-.056-3.79-.056-4.74 0-.917.045-1.732.263-2.406.957C.905 3.204.697 4.047.65 5c-.054.981-.054 3.922 0 4.903.044.952.254 1.796.928 2.49.674.695 1.487.913 2.407.96.948.056 3.79.056 4.74 0 .92-.045 1.734-.262 2.406-.96.672-.694.882-1.538.928-2.49.054-.98.054-3.919 0-4.9Zm-1.224 5.954c-.2.52-.587.92-1.092 1.13-.756.31-2.55.238-3.386.238-.836 0-2.633.07-3.386-.238a1.973 1.973 0 0 1-1.092-1.13c-.3-.782-.23-2.638-.23-3.503 0-.864-.068-2.723.23-3.503.2-.52.587-.92 1.092-1.13.756-.31 2.55-.238 3.386-.238.835 0 2.632-.069 3.386.239.502.206.89.607 1.092 1.13.3.781.23 2.638.23 3.502 0 .865.07 2.723-.23 3.503Z" fill="currentColor"/></g></symbol><symbol id="social-linkedin" viewBox="0 0 14 16"><g fill="none"><path d="M3.718 14.113H1.103V5.3h2.615v8.813ZM2.41 4.098c-.836 0-1.514-.724-1.514-1.6 0-.42.16-.823.443-1.12.284-.297.67-.464 1.071-.464.402 0 .787.167 1.071.464.284.297.444.7.444 1.12 0 .876-.679 1.6-1.515 1.6Zm11.097 10.015h-2.61v-4.29c0-1.022-.02-2.333-1.36-2.333-1.359 0-1.567 1.11-1.567 2.26v4.363H5.356V5.3h2.509v1.203H7.9c.35-.693 1.202-1.424 2.475-1.424 2.646 0 3.133 1.824 3.133 4.193v4.841h-.003Z" fill="currentColor"/></g></symbol><symbol id="social-telegram" viewBox="0 0 13 12"><g fill="none"><path d="m12.187 1.785-1.811 8.918c-.137.63-.493.786-1 .49L6.617 9.069l-1.331 1.337c-.147.154-.27.283-.555.283l.199-2.935 5.114-4.825c.222-.207-.049-.322-.346-.115L3.376 6.971l-2.722-.89c-.592-.192-.602-.618.123-.914L11.423.884c.493-.193.924.115.764.9Z" fill="currentColor"/></g></symbol><symbol id="social-twitter" viewBox="0 0 14 12"><g fill="none"><path d="M12.486 2.829c.008.116.008.233.008.35 0 3.552-2.664 7.645-7.533 7.645-1.5 0-2.894-.441-4.066-1.207.213.025.418.034.64.034A5.253 5.253 0 0 0 4.82 8.503a2.658 2.658 0 0 1-2.475-1.864 2.762 2.762 0 0 0 1.197-.05 2.678 2.678 0 0 1-2.124-2.637v-.033c.353.2.763.324 1.197.34a2.696 2.696 0 0 1-1.18-2.237c0-.5.13-.957.36-1.356a7.49 7.49 0 0 0 5.46 2.812 3.077 3.077 0 0 1-.066-.616c0-1.48 1.18-2.687 2.648-2.687.762 0 1.45.324 1.934.849a5.168 5.168 0 0 0 1.68-.65 2.673 2.673 0 0 1-1.163 1.482 5.246 5.246 0 0 0 1.524-.416 5.737 5.737 0 0 1-1.328 1.389Z" fill="currentColor"/></g></symbol><symbol id="social-whatsapp" viewBox="0 0 15 16"><g fill="none"><path d="M12.392 2.864C11.082 1.484 9.339.726 7.485.726 3.66.726.548 3.997.548 8.017c0 1.284.319 2.539.925 3.646l-.984 3.776 3.678-1.014a6.653 6.653 0 0 0 3.315.886h.003c3.822 0 7.003-3.27 7.003-7.29 0-1.948-.787-3.777-2.096-5.157Zm-4.907 11.22a5.545 5.545 0 0 1-2.937-.845l-.21-.131-2.18.6.58-2.236-.137-.23a6.27 6.27 0 0 1-.881-3.225c0-3.34 2.587-6.06 5.769-6.06 1.54 0 2.987.631 4.074 1.777 1.088 1.147 1.757 2.667 1.754 4.286 0 3.344-2.653 6.063-5.832 6.063Zm3.163-4.54c-.172-.092-1.025-.532-1.184-.59-.16-.063-.275-.093-.391.091a10.39 10.39 0 0 1-.55.716c-.1.122-.203.138-.375.046-1.019-.535-1.688-.956-2.36-2.168-.178-.321.179-.298.51-.995.056-.121.028-.226-.016-.318-.043-.092-.39-.989-.534-1.353-.14-.355-.284-.306-.39-.312-.1-.007-.216-.007-.332-.007a.628.628 0 0 0-.462.227c-.16.184-.607.624-.607 1.52 0 .897.622 1.764.707 1.885.087.122 1.221 1.961 2.962 2.753 1.1.499 1.531.542 2.081.456.335-.052 1.025-.44 1.169-.867.144-.427.144-.791.1-.867-.04-.082-.156-.128-.328-.217Z" fill="currentColor"/></g></symbol><symbol id="social-youtube" viewBox="0 0 17 13"><g fill="none"><path d="M16.155 2.244A2.048 2.048 0 0 0 14.74.769C13.492.421 8.488.421 8.488.421s-5.004 0-6.252.348A2.048 2.048 0 0 0 .82 2.244C.487 3.544.487 6.259.487 6.259s0 2.713.334 4.014c.184.718.726 1.26 1.415 1.451 1.248.349 6.252.349 6.252.349s5.004 0 6.252-.349a2.017 2.017 0 0 0 1.415-1.45c.334-1.302.334-4.015.334-4.015s0-2.714-.334-4.015ZM6.85 8.723V3.794l4.183 2.465L6.85 8.723Z" fill="currentColor"/></g></symbol></svg>